<svg width="16" height="16" viewBox="0 0 16 16" fill="none" xmlns="http://www.w3.org/2000/svg">
<g clip-path="url(#clip0_834_461)">
<mask id="mask0_834_461" style="mask-type:luminance" maskUnits="userSpaceOnUse" x="0" y="0" width="16" height="16">
<path d="M6.4083 2.12394C5.3473 2.12394 3.72063 2.73627 4.2863 6.52827C4.29497 6.5856 4.3063 6.6476 4.31797 6.71394C4.4213 7.28427 4.58063 8.16727 3.56663 8.89527C4.2563 9.46127 5.23863 10.0269 6.4323 10.2719C6.38513 10.5427 6.32596 10.8111 6.25497 11.0766C6.15797 11.4326 5.95463 11.6849 5.5913 11.7926C5.2713 11.8873 4.93597 11.9639 4.59263 12.0426C4.5043 12.0626 4.4153 12.0829 4.32597 12.1039C3.89763 12.2036 3.46097 12.3139 3.07397 12.4699C2.68597 12.6266 2.3253 12.8376 2.06463 13.1523C1.7993 13.4733 1.6573 13.8779 1.66697 14.3839C1.6703 14.5413 1.80497 14.6673 1.9703 14.6673H14.0296C14.195 14.6673 14.3296 14.5413 14.333 14.3839C14.3426 13.8779 14.201 13.4733 13.9353 13.1523C13.675 12.8376 13.314 12.6263 12.9263 12.4699C12.539 12.3136 12.1023 12.2033 11.6736 12.1036L11.4076 12.0426C11.064 11.9639 10.7286 11.8873 10.4086 11.7926C10.0453 11.6849 9.84197 11.4326 9.74497 11.0766C9.66009 10.7605 9.59265 10.4401 9.54297 10.1166C10.4556 9.84194 11.4256 9.34827 12.4333 8.55994L12.4286 8.55527C11.9556 8.1026 11.069 7.25394 11.006 5.23927C11.006 2.46527 9.2373 0.0272694 6.4083 2.12394Z" fill="white" stroke="white" stroke-width="2" stroke-linejoin="round"/>
</mask>
<g mask="url(#mask0_834_461)">
<path d="M0 0H16V16H0V0Z" fill="#F1557C"/>
</g>
</g>
<defs>
<clipPath id="clip0_834_461">
<rect width="16" height="16" fill="white"/>
</clipPath>
</defs>
</svg>
