<svg width="20" height="20" viewBox="0 0 20 20" fill="none" xmlns="http://www.w3.org/2000/svg">
<path d="M13.4518 1.66669H6.54821L1.66666 6.54824V13.4518L6.54821 18.3334H13.4518L18.3333 13.4518V6.54824L13.4518 1.66669ZM10.0002 5.65001C10.4168 5.65001 10.6668 5.98335 10.6668 6.31668V10.4833C10.6668 10.9 10.3335 11.15 10.0002 11.15C9.5835 11.15 9.3335 10.9 9.3335 10.4833V6.31668C9.3335 5.90001 9.66683 5.65001 10.0002 5.65001ZM11.0833 13.2751C11.0833 13.8734 10.5983 14.3584 10 14.3584C9.40169 14.3584 8.91667 13.8734 8.91667 13.2751C8.91667 12.6768 9.40169 12.1918 10 12.1918C10.5983 12.1918 11.0833 12.6768 11.0833 13.2751Z" fill="#D21C1C"/>
</svg>
