<svg width="30" height="20" viewBox="0 0 30 20" fill="none" xmlns="http://www.w3.org/2000/svg">
<g clip-path="url(#clip0_779_878)">
<path d="M0 0H30V20H0V0Z" fill="white"/>
<path d="M0 0H30V6.66667H0V0Z" fill="#FF6820"/>
<path d="M0 13.3333H30V19.9999H0V13.3333Z" fill="#046A38"/>
<path d="M14.9998 13.0832C16.7027 13.0832 18.0832 11.7027 18.0832 9.99984C18.0832 8.29696 16.7027 6.9165 14.9998 6.9165C13.297 6.9165 11.9165 8.29696 11.9165 9.99984C11.9165 11.7027 13.297 13.0832 14.9998 13.0832Z" fill="#07038D"/>
<path d="M14.9997 12.6666C16.4724 12.6666 17.6663 11.4727 17.6663 9.99992C17.6663 8.52716 16.4724 7.33325 14.9997 7.33325C13.5269 7.33325 12.333 8.52716 12.333 9.99992C12.333 11.4727 13.5269 12.6666 14.9997 12.6666Z" fill="white"/>
<path d="M15.0001 10.5337C15.2947 10.5337 15.5335 10.2949 15.5335 10.0004C15.5335 9.70582 15.2947 9.46704 15.0001 9.46704C14.7056 9.46704 14.4668 9.70582 14.4668 10.0004C14.4668 10.2949 14.7056 10.5337 15.0001 10.5337Z" fill="#07038D"/>
<path d="M14.9999 7.33423L15.0999 8.93893L14.9999 9.73345L14.8999 8.93893L14.9999 7.33423Z" fill="#07038D"/>
<path d="M15.3333 7.4724C15.3971 7.48081 15.4557 7.43584 15.4642 7.37195C15.4726 7.30807 15.4276 7.24947 15.3637 7.24106C15.2998 7.23265 15.2412 7.27762 15.2328 7.3415C15.2244 7.40538 15.2694 7.46399 15.3333 7.4724Z" fill="#07038D"/>
<path d="M15.0001 12.6672L14.9001 11.0625L15.0001 10.268L15.1001 11.0625L15.0001 12.6672Z" fill="#07038D"/>
<path d="M14.6667 12.5291C14.6029 12.5207 14.5443 12.5656 14.5358 12.6295C14.5274 12.6934 14.5724 12.752 14.6363 12.7604C14.7002 12.7688 14.7588 12.7238 14.7672 12.66C14.7756 12.5961 14.7306 12.5375 14.6667 12.5291Z" fill="#07038D"/>
<path d="M15.6894 7.42505L15.3706 9.00095L15.0684 9.74252L15.1774 8.94919L15.6894 7.42505Z" fill="#07038D"/>
<path d="M15.975 7.64474C16.0346 7.6694 16.1028 7.64113 16.1275 7.5816C16.1521 7.52207 16.1239 7.45383 16.0643 7.42917C16.0048 7.40451 15.9366 7.43278 15.9119 7.49231C15.8872 7.55184 15.9155 7.62008 15.975 7.64474Z" fill="#07038D"/>
<path d="M14.3092 12.5771L14.6279 11.0012L14.9301 10.2597L14.8211 11.053L14.3092 12.5771Z" fill="#07038D"/>
<path d="M14.0235 12.3575C13.964 12.3328 13.8957 12.3611 13.8711 12.4206C13.8464 12.4801 13.8747 12.5484 13.9342 12.573C13.9937 12.5977 14.062 12.5694 14.0866 12.5099C14.1113 12.4504 14.083 12.3821 14.0235 12.3575Z" fill="#07038D"/>
<path d="M16.3332 7.6916L15.6174 9.13131L15.1336 9.76938L15.4442 9.03131L16.3332 7.6916Z" fill="#07038D"/>
<path d="M16.5521 7.97757C16.6032 8.0168 16.6764 8.00716 16.7157 7.95604C16.7549 7.90492 16.7452 7.83168 16.6941 7.79246C16.643 7.75323 16.5698 7.76288 16.5305 7.81399C16.4913 7.86511 16.501 7.93835 16.5521 7.97757Z" fill="#07038D"/>
<path d="M13.6668 12.3096L14.3826 10.8699L14.8664 10.2318L14.5558 10.9699L13.6668 12.3096Z" fill="#07038D"/>
<path d="M13.4479 12.0236C13.3968 11.9844 13.3236 11.9941 13.2843 12.0452C13.2451 12.0963 13.2548 12.1695 13.3059 12.2088C13.357 12.248 13.4302 12.2383 13.4695 12.1872C13.5087 12.1361 13.499 12.0629 13.4479 12.0236Z" fill="#07038D"/>
<path d="M16.8857 8.11514L15.8217 9.32055L15.1891 9.81165L15.6802 9.17913L16.8857 8.11514Z" fill="#07038D"/>
<path d="M17.0231 8.44823C17.0623 8.49934 17.1356 8.50899 17.1867 8.46976C17.2378 8.43054 17.2475 8.3573 17.2082 8.30618C17.169 8.25506 17.0958 8.24542 17.0446 8.28465C16.9935 8.32387 16.9839 8.39711 17.0231 8.44823Z" fill="#07038D"/>
<path d="M13.1143 11.8861L14.1783 10.6807L14.8109 10.1896L14.3198 10.8221L13.1143 11.8861Z" fill="#07038D"/>
<path d="M12.9769 11.553C12.9377 11.5019 12.8644 11.4922 12.8133 11.5315C12.7622 11.5707 12.7525 11.6439 12.7918 11.695C12.831 11.7462 12.9042 11.7558 12.9554 11.7166C13.0065 11.6774 13.0161 11.6041 12.9769 11.553Z" fill="#07038D"/>
<path d="M17.3093 8.66766L15.9696 9.55661L15.2315 9.86727L15.8696 9.3834L17.3093 8.66766Z" fill="#07038D"/>
<path d="M17.3559 9.02472C17.3806 9.08424 17.4488 9.11251 17.5084 9.08786C17.5679 9.0632 17.5962 8.99495 17.5715 8.93542C17.5468 8.87589 17.4786 8.84763 17.4191 8.87228C17.3595 8.89694 17.3313 8.96519 17.3559 9.02472Z" fill="#07038D"/>
<path d="M12.6907 11.3341L14.0304 10.4451L14.7685 10.1344L14.1304 10.6183L12.6907 11.3341Z" fill="#07038D"/>
<path d="M12.6446 10.977C12.6199 10.9175 12.5517 10.8892 12.4921 10.9139C12.4326 10.9385 12.4043 11.0068 12.429 11.0663C12.4536 11.1258 12.5219 11.1541 12.5814 11.1294C12.6409 11.1048 12.6692 11.0365 12.6446 10.977Z" fill="#07038D"/>
<path d="M17.5757 9.30948L16.0516 9.8214L15.2582 9.93045L15.9998 9.62822L17.5757 9.30948Z" fill="#07038D"/>
<path d="M17.5275 9.66663C17.536 9.73051 17.5946 9.77548 17.6584 9.76707C17.7223 9.75866 17.7673 9.70006 17.7589 9.63618C17.7505 9.57229 17.6919 9.52733 17.628 9.53574C17.5641 9.54415 17.5191 9.60275 17.5275 9.66663Z" fill="#07038D"/>
<path d="M12.4238 10.6908L13.948 10.1788L14.7413 10.0698L13.9997 10.372L12.4238 10.6908Z" fill="#07038D"/>
<path d="M12.472 10.3336C12.4636 10.2697 12.405 10.2248 12.3411 10.2332C12.2772 10.2416 12.2322 10.3002 12.2406 10.3641C12.249 10.4279 12.3076 10.4729 12.3715 10.4645C12.4354 10.4561 12.4804 10.3975 12.472 10.3336Z" fill="#07038D"/>
<path d="M17.667 10.0004L16.0623 10.1004L15.2678 10.0004L16.0623 9.90039L17.667 10.0004Z" fill="#07038D"/>
<path d="M17.5278 10.3333C17.5194 10.3971 17.5644 10.4557 17.6283 10.4642C17.6922 10.4726 17.7508 10.4276 17.7592 10.3637C17.7676 10.2998 17.7226 10.2412 17.6587 10.2328C17.5949 10.2244 17.5363 10.2694 17.5278 10.3333Z" fill="#07038D"/>
<path d="M12.333 10.0001L13.9377 9.9001L14.7322 10.0001L13.9377 10.1001L12.333 10.0001Z" fill="#07038D"/>
<path d="M12.4722 9.66747C12.4806 9.60359 12.4356 9.54499 12.3717 9.53658C12.3078 9.52817 12.2492 9.57313 12.2408 9.63702C12.2324 9.7009 12.2774 9.7595 12.3413 9.76791C12.4051 9.77632 12.4637 9.73136 12.4722 9.66747Z" fill="#07038D"/>
<path d="M17.5767 10.6906L16.0008 10.3719L15.2592 10.0696L16.0525 10.1787L17.5767 10.6906Z" fill="#07038D"/>
<path d="M17.3565 10.9763C17.3318 11.0358 17.3601 11.104 17.4196 11.1287C17.4791 11.1533 17.5474 11.1251 17.5721 11.0655C17.5967 11.006 17.5684 10.9378 17.5089 10.9131C17.4494 10.8885 17.3811 10.9167 17.3565 10.9763Z" fill="#07038D"/>
<path d="M12.4238 9.31039L13.9997 9.62912L14.7413 9.93135L13.948 9.82231L12.4238 9.31039Z" fill="#07038D"/>
<path d="M12.644 9.02472C12.6687 8.96519 12.6404 8.89694 12.5809 8.87229C12.5213 8.84763 12.4531 8.8759 12.4284 8.93543C12.4038 8.99496 12.432 9.0632 12.4916 9.08786C12.5511 9.11252 12.6193 9.08425 12.644 9.02472Z" fill="#07038D"/>
<path d="M17.3089 11.3329L15.8692 10.6172L15.2311 10.1333L15.9692 10.444L17.3089 11.3329Z" fill="#07038D"/>
<path d="M17.0227 11.5523C16.9834 11.6034 16.9931 11.6767 17.0442 11.7159C17.0953 11.7551 17.1686 11.7455 17.2078 11.6944C17.247 11.6432 17.2374 11.57 17.1863 11.5308C17.1351 11.4916 17.0619 11.5012 17.0227 11.5523Z" fill="#07038D"/>
<path d="M12.6896 8.66535L14.1294 9.3811L14.7674 9.86496L14.0294 9.5543L12.6896 8.66535Z" fill="#07038D"/>
<path d="M12.9764 8.4467C13.0156 8.39558 13.0059 8.32235 12.9548 8.28312C12.9037 8.2439 12.8305 8.25354 12.7912 8.30466C12.752 8.35578 12.7617 8.42901 12.8128 8.46824C12.8639 8.50746 12.9371 8.49782 12.9764 8.4467Z" fill="#07038D"/>
<path d="M16.8853 11.8849L15.6799 10.8209L15.1888 10.1884L15.8214 10.6795L16.8853 11.8849Z" fill="#07038D"/>
<path d="M16.5525 12.0224C16.5014 12.0616 16.4917 12.1348 16.531 12.186C16.5702 12.2371 16.6434 12.2467 16.6946 12.2075C16.7457 12.1683 16.7553 12.095 16.7161 12.0439C16.6769 11.9928 16.6036 11.9832 16.5525 12.0224Z" fill="#07038D"/>
<path d="M13.1137 8.11459L14.3191 9.17857L14.8102 9.81109L14.1777 9.31999L13.1137 8.11459Z" fill="#07038D"/>
<path d="M13.4465 7.97713C13.4976 7.93791 13.5073 7.86467 13.4681 7.81355C13.4288 7.76243 13.3556 7.75279 13.3045 7.79201C13.2534 7.83124 13.2437 7.90448 13.2829 7.9556C13.3222 8.00671 13.3954 8.01636 13.4465 7.97713Z" fill="#07038D"/>
<path d="M16.3323 12.31L15.4434 10.9703L15.1327 10.2322L15.6166 10.8703L16.3323 12.31Z" fill="#07038D"/>
<path d="M15.9753 12.3562C15.9158 12.3808 15.8875 12.4491 15.9121 12.5086C15.9368 12.5681 16.005 12.5964 16.0646 12.5717C16.1241 12.5471 16.1524 12.4788 16.1277 12.4193C16.1031 12.3598 16.0348 12.3315 15.9753 12.3562Z" fill="#07038D"/>
<path d="M13.6657 7.69023L14.5547 9.02994L14.8653 9.76802L14.3814 9.12994L13.6657 7.69023Z" fill="#07038D"/>
<path d="M14.0233 7.64334C14.0828 7.61868 14.111 7.55043 14.0864 7.49091C14.0617 7.43138 13.9935 7.40311 13.934 7.42777C13.8744 7.45242 13.8462 7.52067 13.8708 7.5802C13.8955 7.63973 13.9637 7.668 14.0233 7.64334Z" fill="#07038D"/>
<path d="M15.6905 12.5757L15.1786 11.0516L15.0696 10.2582L15.3718 10.9998L15.6905 12.5757Z" fill="#07038D"/>
<path d="M15.3329 12.5275C15.269 12.536 15.224 12.5946 15.2324 12.6584C15.2408 12.7223 15.2995 12.7673 15.3633 12.7589C15.4272 12.7505 15.4722 12.6919 15.4638 12.628C15.4554 12.5641 15.3968 12.5191 15.3329 12.5275Z" fill="#07038D"/>
<path d="M14.309 7.42309L14.8209 8.94723L14.93 9.74056L14.6277 8.99899L14.309 7.42309Z" fill="#07038D"/>
<path d="M14.6661 7.47148C14.73 7.46307 14.775 7.40447 14.7666 7.34058C14.7582 7.2767 14.6996 7.23173 14.6357 7.24014C14.5718 7.24855 14.5268 7.30716 14.5352 7.37104C14.5437 7.43492 14.6023 7.47989 14.6661 7.47148Z" fill="#07038D"/>
</g>
<defs>
<clipPath id="clip0_779_878">
<rect width="30" height="20" fill="white"/>
</clipPath>
</defs>
</svg>
