<svg width="16" height="16" viewBox="0 0 16 16" fill="none" xmlns="http://www.w3.org/2000/svg">
<g clip-path="url(#clip0_834_473)">
<path d="M10.2868 11.086C10.2418 10.5259 10.2291 9.964 10.2489 9.40267L10.2482 9.42733C10.7954 8.90729 11.1367 8.2341 11.2175 7.51533L11.219 7.50133C11.4655 7.48267 11.8545 7.26267 11.968 6.39067C12.0022 6.24049 11.9893 6.08449 11.9307 5.94076C11.8722 5.79704 11.7704 5.67149 11.6371 5.57867L11.6349 5.57733C12.0363 4.47067 12.8696 1.04667 10.0926 0.693333C9.80682 0.233333 9.07529 0 8.12416 0C4.31889 0.064 3.86005 2.634 4.69193 5.57733C4.55761 5.671 4.45516 5.7978 4.39657 5.9429C4.33797 6.088 4.32566 6.24539 4.36107 6.39667L4.36034 6.39133C4.47669 7.262 4.86281 7.48333 5.10932 7.502C5.19579 8.22877 5.54793 8.90734 6.10845 9.42733C6.12688 9.99851 6.11281 10.5702 6.06628 11.14L6.06991 11.086C5.31511 12.942 0.23367 12.4207 0.000976562 16H16.3317C16.0975 12.4207 11.0394 12.942 10.286 11.086H10.2868Z" fill="#0098DB"/>
</g>
<defs>
<clipPath id="clip0_834_473">
<rect width="16" height="16" fill="white"/>
</clipPath>
</defs>
</svg>
