<svg width="20" height="20" viewBox="0 0 20 20" fill="none" xmlns="http://www.w3.org/2000/svg">
<path d="M10.0002 1.6666C7.75017 1.6666 5.66684 2.58326 4.08351 4.1666C2.50017 5.74993 1.66684 7.91659 1.66684 10.1666C1.66684 14.6666 5.33351 18.3333 9.83351 18.3333H10.0002C14.666 18.2499 18.3335 14.4999 18.3335 9.83326C18.3335 5.33326 14.666 1.6666 10.1668 1.6666H10.0002ZM9.33351 6.31668C9.33351 5.90001 9.66684 5.65001 10.0002 5.65001C10.4168 5.65001 10.6668 5.98335 10.6668 6.31668V10.4833C10.6668 10.9 10.3335 11.15 10.0002 11.15C9.58351 11.15 9.33351 10.9 9.33351 10.4833V6.31668ZM10 14.3584C9.4017 14.3584 8.91667 13.8734 8.91667 13.2751C8.91667 12.6768 9.4017 12.1918 10 12.1918C10.5983 12.1918 11.0833 12.6768 11.0833 13.2751C11.0833 13.8734 10.5983 14.3584 10 14.3584Z" fill="#DF7B00"/>
</svg>
