<svg width="32" height="32" viewBox="0 0 32 32" fill="none" xmlns="http://www.w3.org/2000/svg">
<g clip-path="url(#clip0_786_2494)">
<path d="M16 0C11.7575 0 7.685 1.68675 4.6875 4.68625C1.68693 7.68696 0.000858621 11.7565 0 16C0 20.2417 1.6875 24.3142 4.6875 27.3137C7.685 30.3132 11.7575 32 16 32C20.2425 32 24.315 30.3132 27.3125 27.3137C30.3125 24.3142 32 20.2417 32 16C32 11.7583 30.3125 7.68575 27.3125 4.68625C24.315 1.68675 20.2425 0 16 0Z" fill="url(#paint0_linear_786_2494)"/>
<path d="M7.24213 15.8308C11.9071 13.7988 15.0171 12.4591 16.5721 11.8118C21.0171 9.96356 21.9396 9.64256 22.5421 9.63169C22.6746 9.62956 22.9696 9.66231 23.1621 9.81794C23.3221 9.94919 23.3671 10.1267 23.3896 10.2513C23.4096 10.3758 23.4371 10.6596 23.4146 10.8811C23.1746 13.4111 22.1321 19.5506 21.6021 22.3843C21.3796 23.5833 20.9371 23.9853 20.5096 24.0246C19.5796 24.1101 18.8746 23.4106 17.9746 22.8208C16.5671 21.8976 15.7721 21.3231 14.4046 20.4223C12.8246 19.3813 13.8496 18.8091 14.7496 17.8741C14.9846 17.6293 19.0796 13.9056 19.1571 13.5678C19.1671 13.5256 19.1771 13.3681 19.0821 13.2851C18.9896 13.2018 18.8521 13.2303 18.7521 13.2528C18.6096 13.2848 16.3621 14.7718 12.0021 17.7136C11.3646 18.1521 10.7871 18.3658 10.2671 18.3546C9.69713 18.3423 8.59713 18.0316 7.77963 17.7661C6.77963 17.4403 5.98213 17.2681 6.05213 16.7148C6.08713 16.4268 6.48463 16.1321 7.24213 15.8308Z" fill="white"/>
</g>
<defs>
<linearGradient id="paint0_linear_786_2494" x1="1600" y1="0" x2="1600" y2="3200" gradientUnits="userSpaceOnUse">
<stop stop-color="#2AABEE"/>
<stop offset="1" stop-color="#229ED9"/>
</linearGradient>
<clipPath id="clip0_786_2494">
<rect width="32" height="32" fill="white"/>
</clipPath>
</defs>
</svg>
