<svg width="32" height="32" viewBox="0 0 32 32" fill="none" xmlns="http://www.w3.org/2000/svg">
<g clip-path="url(#clip0_786_2479)">
<path d="M0.682461 15.8083C0.681711 18.4969 1.38971 21.1222 2.73596 23.4361L0.553711 31.3421L8.70771 29.2207C10.963 30.4389 13.4899 31.0772 16.0577 31.0774H16.0645C24.5413 31.0774 31.4417 24.233 31.4453 15.8203C31.447 11.7438 29.8485 7.91051 26.9442 5.02654C24.0405 2.14282 20.1786 0.553862 16.0638 0.552002C7.58596 0.552002 0.686086 7.39603 0.682586 15.8083" fill="url(#paint0_linear_786_2479)"/>
<path d="M0.13375 15.8035C0.132875 18.5889 0.86625 21.308 2.2605 23.7048L0 31.8942L8.44637 29.6967C10.7736 30.9558 13.3939 31.6196 16.0601 31.6206H16.067C24.848 31.6206 31.9963 24.53 32 15.8162C32.0015 11.5932 30.3455 7.62208 27.3375 4.63479C24.3291 1.64788 20.3291 0.00173643 16.067 0C7.2845 0 0.13725 7.08961 0.13375 15.8035ZM5.16388 23.292L4.8485 22.7953C3.52275 20.7036 2.823 18.2865 2.824 15.8045C2.82675 8.56174 8.76725 2.66915 16.072 2.66915C19.6095 2.67064 22.934 4.03895 25.4345 6.52155C27.9349 9.0044 29.3108 12.3049 29.3099 15.8152C29.3066 23.058 23.366 28.9513 16.067 28.9513H16.0618C13.6851 28.9501 11.3542 28.3168 9.3215 27.12L8.83775 26.8353L3.8255 28.1393L5.16388 23.292Z" fill="url(#paint1_linear_786_2479)"/>
<path d="M12.0845 9.19686C11.7862 8.53912 11.4723 8.52585 11.1887 8.51432C10.9565 8.5044 10.691 8.50514 10.4257 8.50514C10.1602 8.50514 9.72883 8.60424 9.3642 8.99928C8.9992 9.39469 7.9707 10.3502 7.9707 12.2937C7.9707 14.2371 9.39733 16.1154 9.5962 16.3792C9.79533 16.6426 12.3503 20.7584 16.3968 22.3418C19.7598 23.6576 20.4442 23.3959 21.1741 23.3299C21.9041 23.2642 23.5296 22.3747 23.8612 21.4522C24.1931 20.5299 24.1931 19.7394 24.0936 19.5742C23.9941 19.4096 23.7286 19.3107 23.3305 19.1133C22.9323 18.9158 20.975 17.96 20.6101 17.8282C20.2451 17.6965 19.9797 17.6307 19.7142 18.0263C19.4487 18.4212 18.6863 19.3107 18.454 19.5742C18.2218 19.8382 17.9895 19.8711 17.5915 19.6735C17.1931 19.4753 15.911 19.0587 14.3898 17.7131C13.2063 16.666 12.4073 15.373 12.1751 14.9774C11.9428 14.5825 12.1502 14.3685 12.3498 14.1716C12.5287 13.9946 12.7481 13.7103 12.9473 13.4798C13.1458 13.2491 13.2121 13.0845 13.3448 12.821C13.4777 12.5574 13.4112 12.3267 13.3118 12.1291C13.2121 11.9315 12.4385 9.97788 12.0845 9.19686Z" fill="white"/>
</g>
<defs>
<linearGradient id="paint0_linear_786_2479" x1="1545.14" y1="3079.56" x2="1545.14" y2="0.552002" gradientUnits="userSpaceOnUse">
<stop stop-color="#1FAF38"/>
<stop offset="1" stop-color="#60D669"/>
</linearGradient>
<linearGradient id="paint1_linear_786_2479" x1="1600" y1="3189.42" x2="1600" y2="0" gradientUnits="userSpaceOnUse">
<stop stop-color="#F9F9F9"/>
<stop offset="1" stop-color="white"/>
</linearGradient>
<clipPath id="clip0_786_2479">
<rect width="32" height="32" fill="white"/>
</clipPath>
</defs>
</svg>
