<svg width="32" height="32" viewBox="0 0 32 32" fill="none" xmlns="http://www.w3.org/2000/svg">
<g clip-path="url(#clip0_786_2486)">
<path d="M29 0.750116H3C2.41008 0.744112 1.84187 0.972377 1.42005 1.38482C0.998227 1.79727 0.757253 2.36021 0.75 2.95012V29.0551C0.758564 29.6442 1.00012 30.2058 1.42179 30.6172C1.84347 31.0285 2.41093 31.2561 3 31.2501H29C29.59 31.2548 30.1578 31.0258 30.5794 30.6131C31.001 30.2003 31.2421 29.6375 31.25 29.0476V2.94262C31.2395 2.35444 30.9972 1.79418 30.5759 1.38363C30.1546 0.973077 29.5883 0.74541 29 0.750116Z" fill="#0076B2"/>
<path d="M5.26527 12.1824H9.79277V26.7499H5.26527V12.1824ZM7.53027 4.93237C8.04956 4.93237 8.55717 5.08639 8.98891 5.37494C9.42064 5.66349 9.75709 6.07361 9.9557 6.55341C10.1543 7.03321 10.2061 7.56114 10.1047 8.0704C10.0032 8.57967 9.75291 9.0474 9.38554 9.41441C9.01818 9.78143 8.55022 10.0312 8.04085 10.1322C7.53149 10.2332 7.00361 10.1809 6.524 9.98184C6.04438 9.78277 5.63459 9.44593 5.34645 9.01393C5.05831 8.58192 4.90478 8.07415 4.90527 7.55487C4.90594 6.85911 5.18279 6.19208 5.675 5.70033C6.16721 5.20859 6.83451 4.93237 7.53027 4.93237ZM12.6328 12.1824H16.9728V14.1824H17.0328C17.6378 13.0374 19.1128 11.8299 21.3153 11.8299C25.9003 11.8199 26.7503 14.8374 26.7503 18.7499V26.7499H22.2228V19.6624C22.2228 17.9749 22.1928 15.8024 19.8703 15.8024C17.5478 15.8024 17.1528 17.6424 17.1528 19.5524V26.7499H12.6328V12.1824Z" fill="white"/>
</g>
<defs>
<clipPath id="clip0_786_2486">
<rect width="32" height="32" fill="white"/>
</clipPath>
</defs>
</svg>
